<svg width="31" height="31" viewBox="0 0 31 31" fill="none" xmlns="http://www.w3.org/2000/svg">
<path d="M7 15.4545C7 13.9015 7.37879 12.4858 8.13636 11.2074C8.89394 9.92898 9.91193 8.91098 11.1903 8.15341C12.4688 7.39583 13.8845 7.01705 15.4375 7.01705C16.7822 7.01705 18.0227 7.30587 19.1591 7.88352C20.3049 8.46117 21.2519 9.25189 22 10.2557C22.7481 11.25 23.2121 12.3769 23.392 13.6364H19.9545C19.7652 12.661 19.2396 11.8655 18.3778 11.25C17.5161 10.625 16.536 10.3125 15.4375 10.3125C14.4905 10.3125 13.6288 10.5445 12.8523 11.0085C12.0758 11.4725 11.4555 12.0928 10.9915 12.8693C10.5275 13.6458 10.2955 14.5076 10.2955 15.4545C10.2955 16.4015 10.5275 17.2633 10.9915 18.0398C11.4555 18.8163 12.0758 19.4366 12.8523 19.9006C13.6288 20.3646 14.4905 20.5966 15.4375 20.5966C16.536 20.5966 17.464 20.2888 18.2216 19.6733C18.9886 19.0483 19.4716 18.2481 19.6705 17.2727H23.108C22.928 18.5322 22.4877 19.6638 21.7869 20.6676C21.0862 21.6619 20.1866 22.4479 19.0881 23.0256C17.9991 23.6032 16.7822 23.892 15.4375 23.892C13.8845 23.892 12.4688 23.5133 11.1903 22.7557C9.91193 21.9981 8.89394 20.9801 8.13636 19.7017C7.37879 18.4233 7 17.0076 7 15.4545ZM15.2955 30.4545C13.2311 30.4545 11.2898 30.0663 9.47159 29.2898C7.66288 28.5133 6.06724 27.4384 4.68466 26.0653C3.31155 24.6828 2.23201 23.0871 1.44602 21.2784C0.669508 19.4697 0.285985 17.5284 0.295455 15.4545C0.304924 13.3807 0.697917 11.4394 1.47443 9.63068C2.26042 7.82197 3.33996 6.23106 4.71307 4.85795C6.08617 3.47538 7.67708 2.39583 9.4858 1.61932C11.2945 0.842803 13.2311 0.454545 15.2955 0.454545C17.3693 0.454545 19.3106 0.842803 21.1193 1.61932C22.9375 2.39583 24.5284 3.47538 25.892 4.85795C27.2652 6.23106 28.34 7.82197 29.1165 9.63068C29.893 11.4394 30.286 13.3807 30.2955 15.4545C30.3049 17.5284 29.9214 19.4697 29.1449 21.2784C28.3684 23.0871 27.2936 24.6828 25.9205 26.0653C24.5473 27.4384 22.9517 28.5133 21.1335 29.2898C19.3153 30.0663 17.3693 30.4545 15.2955 30.4545ZM15.2955 27.1591C16.9148 27.1591 18.4347 26.8561 19.8551 26.25C21.2756 25.6439 22.5208 24.8059 23.5909 23.7358C24.661 22.6657 25.4991 21.4252 26.1051 20.0142C26.7112 18.5937 27.0095 17.0786 27 15.4688C26.9905 13.8494 26.6828 12.3295 26.0767 10.9091C25.4706 9.48864 24.6326 8.24337 23.5625 7.1733C22.4924 6.10322 21.2519 5.26515 19.8409 4.65909C18.4299 4.05303 16.9148 3.75 15.2955 3.75C13.6856 3.75 12.1752 4.05303 10.7642 4.65909C9.35322 5.26515 8.11269 6.10795 7.04261 7.1875C5.97254 8.25758 5.12973 9.50284 4.5142 10.9233C3.90814 12.3343 3.60038 13.8494 3.59091 15.4688C3.58144 17.0691 3.87974 18.5795 4.4858 20C5.09186 21.411 5.92992 22.6515 7 23.7216C8.07955 24.7917 9.32481 25.6345 10.7358 26.25C12.1563 26.8561 13.6761 27.1591 15.2955 27.1591Z" fill="#E8E8E8"/>
</svg>
